# xmcd
#
# Track frame offsets: 
#        150
#        17506
#        28573
#        40150
#        55379
#        66350
#        78238
#        89754
#        104329
#        116513
#        128695
#        141927
#        153699
#        166416
#        184451
#
# Disc length: 2602 seconds
#
# Revision: 0
# Processed by: cddbd v1.5.2PL0 Copyright (c) Steve Scherf et al.
# Submitted via: ExactAudioCopy v1.1
#
DISCID=cf0a280f
DTITLE=Various Artist - Country Music of Your Life: I Believe In You 
DTITLE=[CD2]
DYEAR=2015
DGENRE=Country
TTITLE0=Kenny Rogers and Sheena Easton - We’ve Got Tonight
TTITLE1=Patsy Cline - Leavin’ on Your Mind
TTITLE2=Freddy Fender - Before the Next Teardrop Falls
TTITLE3=John Conlee - Rose Colored Glasses
TTITLE4=Buck Owens - Together Again
TTITLE5=Conway Twitty and Loretta Lynn - After the Fire Is Gone
TTITLE6=Sammi Smith - Help Me Make It through the Night
TTITLE7=Anne Murray - Could I Have This Dance
TTITLE8=Glen Campbell - By the Time I Get to Pheonix
TTITLE9=Conway Twitty - Linda On My Mind
TTITLE10=Ray Charles - Crying Time
TTITLE11=Wanda Jackson - Right or Wrong
TTITLE12=Bill Anderson - 8 X 10
TTITLE13=Bobby Goldsboro - Honey
TTITLE14=Ferlin Husky - Gone
EXTD=
EXTT0=
EXTT1=
EXTT2=
EXTT3=
EXTT4=
EXTT5=
EXTT6=
EXTT7=
EXTT8=
EXTT9=
EXTT10=
EXTT11=
EXTT12=
EXTT13=
EXTT14=
PLAYORDER=
